<svg width="123" height="93" viewBox="0 0 123 93" fill="none" xmlns="http://www.w3.org/2000/svg">
<path fill-rule="evenodd" clip-rule="evenodd" d="M11.3426 11.0139L31.3426 11.0139L45.4198 25.8842L61.3426 2L73.9054 20.8443L83.3426 11.0139H99.3426L94.7693 19.0139L81.8108 32.7024L121 91L2 91.0139L37.3043 38.0574L11.3426 11.0139ZM31.3426 86.0139H83.3426L57.1608 58.7411L31.3426 86.0139ZM102.343 86.0139H111.343L78.2847 36.4271L66.8426 48.5139L102.343 86.0139ZM11.3426 86.0139L47.3426 48.5139L40.8508 41.7516L11.3426 86.0139ZM48.9459 29.6089L57.1608 38.2866L70.359 24.5385L61.3426 11.0139L48.9459 29.6089Z" fill="url(#paint0_linear_0_1)"/>
<path d="M11.3426 10.5139H10.1695L10.9819 11.3601L36.6656 38.114L1.58397 90.7365L1.06567 91.514L2.00006 91.5139L121 91.5L121.939 91.4999L121.415 90.7211L82.449 32.7555L95.1324 19.3576L95.1736 19.3141L95.2033 19.262L99.7767 11.262L100.204 10.5139H99.3426H83.3426H83.1295L82.9819 10.6676L73.976 20.0487L61.7586 1.72265L61.3426 1.09861L60.9266 1.72265L45.3517 25.0849L31.7057 10.6701L31.5578 10.5139H31.3426L11.3426 10.5139ZM57.1633 59.4658L82.1695 85.5139H32.5044L57.1633 59.4658ZM78.2166 37.2263L110.408 85.5139H102.558L67.5311 48.5139L78.2166 37.2263ZM46.6495 48.5139L14.8845 81.6024L40.9214 42.5471L46.6495 48.5139ZM49.583 29.5546L61.3426 11.9153L69.7203 24.4818L57.1633 37.562L49.583 29.5546Z" stroke="black" stroke-opacity="0.8"/>
<defs>
<linearGradient id="paint0_linear_0_1" x1="61.5" y1="2" x2="61.5" y2="91.0139" gradientUnits="userSpaceOnUse">
<stop stop-color="#F0E2A7"/>
<stop offset="1" stop-color="#371B19"/>
</linearGradient>
</defs>
</svg>
