<svg width="380" height="345" viewBox="0 0 380 345" fill="none" xmlns="http://www.w3.org/2000/svg">
<path d="M222.27 136.893L190 81.0078L157.736 136.885L162.076 139.367L190.001 91L217.93 139.376L222.27 136.893Z" fill="url(#paint0_linear_0_1)"/>
<path d="M361 262H324V274H361V262Z" fill="url(#paint1_linear_0_1)"/>
<path d="M308 274V262H291L284 274H308Z" fill="url(#paint2_linear_0_1)"/>
<path d="M231 274L238 262H228L220.56 274H231Z" fill="url(#paint3_linear_0_1)"/>
<path d="M204.189 274H175.811L169 262H187V184H193V262H211L204.189 274Z" fill="url(#paint4_linear_0_1)"/>
<path d="M221.001 255H228.001V216L203.001 189H209.001L247.001 218V255H257.001V216L215.001 189H221.001L275.001 218V255H288.001V216L227.001 189L252.354 189L239.518 166.767L292.747 205.618L326.46 186.154L319.985 174.88L287.979 193.359L236.453 161.458L233.403 156.175L277.247 178.771L311.021 159.272L310.679 158.676L306.022 150.61L273.979 169.11L230.363 150.909L227.3 145.604L262.747 153.656L296.522 134.156L293.022 128.094L260.979 146.594L224.284 140.38L224.156 140.159L219.837 142.678L243.694 184H197V189L221.001 218V255Z" fill="url(#paint5_linear_0_1)"/>
<path d="M160.164 142.679L136.307 184H183V189.001L159.001 218V255H152.001V216L177.001 189H171.001L133.001 218V255H123.001V216L165.001 189H159.001L105.001 218V255H92.0005V216L153.001 189L127.647 189L140.527 166.691L87.2321 205.59L53.5471 186.141L60.0215 174.868L92.0001 193.331L143.585 161.394L146.63 156.119L102.732 178.743L68.9861 159.259L73.9664 150.588L106 169.082L149.666 150.861L152.723 145.566L117.232 153.628L83.4572 134.128L86.9572 128.066L119 146.566L155.738 140.345L155.845 140.159L160.164 142.679Z" fill="url(#paint6_linear_0_1)"/>
<path d="M152 262H142L149 274H159.44L152 262Z" fill="url(#paint7_linear_0_1)"/>
<path d="M92 274V262H73L65.5 274H92Z" fill="url(#paint8_linear_0_1)"/>
<path d="M48.8 274L56 262H19L26.2 274H48.8Z" fill="url(#paint9_linear_0_1)"/>
<path d="M222.27 136.893L190 81.0078L157.736 136.885L162.076 139.367L190.001 91L217.93 139.376L222.27 136.893Z" stroke="black" stroke-opacity="0.69"/>
<path d="M361 262H324V274H361V262Z" stroke="black" stroke-opacity="0.69"/>
<path d="M308 274V262H291L284 274H308Z" stroke="black" stroke-opacity="0.69"/>
<path d="M231 274L238 262H228L220.56 274H231Z" stroke="black" stroke-opacity="0.69"/>
<path d="M204.189 274H175.811L169 262H187V184H193V262H211L204.189 274Z" stroke="black" stroke-opacity="0.69"/>
<path d="M221.001 255H228.001V216L203.001 189H209.001L247.001 218V255H257.001V216L215.001 189H221.001L275.001 218V255H288.001V216L227.001 189L252.354 189L239.518 166.767L292.747 205.618L326.46 186.154L319.985 174.88L287.979 193.359L236.453 161.458L233.403 156.175L277.247 178.771L311.021 159.272L310.679 158.676L306.022 150.61L273.979 169.11L230.363 150.909L227.3 145.604L262.747 153.656L296.522 134.156L293.022 128.094L260.979 146.594L224.284 140.38L224.156 140.159L219.837 142.678L243.694 184H197V189L221.001 218V255Z" stroke="black" stroke-opacity="0.69"/>
<path d="M160.164 142.679L136.307 184H183V189.001L159.001 218V255H152.001V216L177.001 189H171.001L133.001 218V255H123.001V216L165.001 189H159.001L105.001 218V255H92.0005V216L153.001 189L127.647 189L140.527 166.691L87.2321 205.59L53.5471 186.141L60.0215 174.868L92.0001 193.331L143.585 161.394L146.63 156.119L102.732 178.743L68.9861 159.259L73.9664 150.588L106 169.082L149.666 150.861L152.723 145.566L117.232 153.628L83.4572 134.128L86.9572 128.066L119 146.566L155.738 140.345L155.845 140.159L160.164 142.679Z" stroke="black" stroke-opacity="0.69"/>
<path d="M152 262H142L149 274H159.44L152 262Z" stroke="black" stroke-opacity="0.69"/>
<path d="M92 274V262H73L65.5 274H92Z" stroke="black" stroke-opacity="0.69"/>
<path d="M48.8 274L56 262H19L26.2 274H48.8Z" stroke="black" stroke-opacity="0.69"/>
<path fill-rule="evenodd" clip-rule="evenodd" d="M2 262L95 101L187 153.624V262H2ZM183 255V183H152L154 180H183V177H156L158 174H183V171H160L162 168H183V165H164L166 162H183V159H168L170 156L178.961 153.644L99 107L14 255H183Z" fill="url(#paint10_linear_0_1)"/>
<path fill-rule="evenodd" clip-rule="evenodd" d="M285 101L378 262H193V153.641L285 101ZM281 107L201.045 153.641L210 156L212 159H197V162H214L216 165H197V168H218L220 171H197V174H222L224 177H197V180H226L228 183H197V255H366L281 107Z" fill="url(#paint11_linear_0_1)"/>
<path d="M19 262L37 292H37.5H38L56 262H73L48 302L73 343H56L38 313H37.5H37L19.0039 343.024H2L27 302L2 262H19Z" fill="url(#paint12_linear_0_1)"/>
<path d="M169 262H152L183 312V343H197V312L228 262H211L190 299L169 262Z" fill="url(#paint13_linear_0_1)"/>
<path d="M231 274L238 262H228H291L284 274H268V343.245L254 343V274H231Z" fill="url(#paint14_linear_0_1)"/>
<path d="M308 262H324V296H361V262H378H377V343H361V308H324V343H308V262Z" fill="url(#paint15_linear_0_1)"/>
<path d="M92 262V343H145V331H105V308H142V296.02H105V274H149L142 262H152H92Z" fill="url(#paint16_linear_0_1)"/>
<path d="M2 262L95 101L187 153.624V262H2ZM2 262L27 302L2 343.024H19.0039L37 313H37.5H38L56 343H73L48 302L73 262H56L38 292H37.5H37L19 262H2ZM378 262L285 101L193 153.641V262H378ZM378 262H361V296H324V262H308V343H324V308H361V343H377V262H378ZM152 262H169L190 299L211 262H228M152 262L183 312V343H197V312L228 262M152 262H92V343H145V331H105V308H142V296.02H105V274H149L142 262H152ZM228 262H291L284 274H268V343.245L254 343V274H231L238 262H228ZM170 156L168 159H183V162H166L164 165H183V168H162L160 171H183V174H158L156 177H183V180H154L152 183H183V255H14L99 107L178.961 153.644L170 156ZM210 156L201.045 153.641L281 107L366 255H197V183H228L226 180H197V177H224L222 174H197V171H220L218 168H197V165H216L214 162H197V159H212L210 156Z" stroke="black" stroke-opacity="0.8" stroke-width="2"/>
<g clip-path="url(#clip0_0_1)">
<path fill-rule="evenodd" clip-rule="evenodd" d="M117.539 27.4956C114.305 27.4956 112.511 28.3866 111.172 30.0669L111.854 27.4956H88.3318L83.784 44.5275L98.1853 75.4091H99.1202L109.53 36.2025C110.085 34.1149 111.475 33.3256 114.027 33.3256H116.781C119.333 33.3256 119.686 33.8093 119.004 36.3807L108.62 75.4091H132.142L142.829 35.3114C144.219 30.0669 142.349 27.4956 137.145 27.4956H117.539ZM182.597 27.4956L172.163 66.7276C171.607 68.7898 170.217 69.579 167.665 69.579H164.937C162.385 69.579 162.031 69.0953 162.713 66.524L173.072 27.4956H149.55L138.888 67.6187C137.498 72.8378 139.368 75.4091 144.548 75.4091H164.154C167.388 75.4091 169.207 74.5181 170.52 72.8378L169.838 75.4091H193.386L206.12 27.4956H182.597ZM216.579 9.31793L199.02 75.4091H222.542L240.127 9.31793H216.579ZM271.759 27.4956H248.414L228.985 51.1977L235.478 75.4091H259.025L251.623 51.1977L271.759 27.4956ZM291.163 47.939L294.246 36.3807C294.928 33.8093 295.559 33.3256 298.111 33.3256H303.291C305.842 33.3256 306.196 33.8093 305.514 36.3807L302.457 47.939H291.163ZM280.83 27.4956C275.625 27.4956 272.391 30.0669 271.001 35.3114L262.411 67.6187C261.021 72.8378 262.891 75.4091 268.071 75.4091H310.138C315.342 75.4091 318.576 72.8378 319.966 67.6187L322.189 59.2173H299.45L297.505 66.524C296.823 69.0953 296.191 69.579 293.664 69.579H288.46C285.908 69.579 285.554 69.0953 286.236 66.524L289.622 53.7691H323.655L328.556 35.3114C329.946 30.0669 328.076 27.4956 322.897 27.4956H280.83Z" fill="white"/>
<path d="M83.7335 60.0829L86.4621 61.4831C89.7972 68.7389 91.6416 72.685 94.9513 79.9408L105.058 84.9307L104.653 86H89.4687L87.5991 85.4144C87.5991 85.4144 69.3321 87.0184 61.6262 79.5844C58.19 76.2493 57.4321 71.5139 59.1501 67.6442L59.1754 67.5933C59.9839 65.8111 61.323 64.2072 63.1926 63.0361L64.3548 61.3558L60.4639 49.1865C59.4533 46.1314 58.6448 43.8401 60.8177 44.1456L59.7312 37.1445L59.0743 37.1699L56.7499 22.4802L55.6635 21.8946C55.0066 13.0858 55.9919 16.6501 52 8.80876L54.855 1.83304L60.1102 0L60.186 1.22202C70.0396 3.05506 79.8931 4.8881 89.7214 6.72114L90.1256 5.65187C95.0271 6.6193 131.637 13.315 133.052 14.5625C134.264 15.6063 136.816 19.476 139.873 24.5423C138.307 23.4221 136.159 22.8111 133.481 22.8111C116.907 22.8111 100.383 22.8111 83.8093 22.8111L70.2922 20.9017L70.8228 26.8082L82.3944 54.1001C85.9063 55.4748 81.8133 58.0462 83.7335 60.0829ZM60.3376 3.56424L60.3629 4.17525L68.5489 12.7294H101.141L88.5086 10.0562L88.9129 8.9106C79.3878 7.12848 69.8627 5.34636 60.3376 3.56424ZM73.9305 48.6264L65.5928 47.7863L68.6247 57.3843L77.4929 54.8893L73.9305 48.6264ZM62.94 44.6039C66.8814 45.4441 67.6141 45.1385 71.9345 45.1385L59.9839 24.2623L62.4852 37.0426L61.7777 37.0681L62.94 44.6039Z" fill="#F8B435"/>
</g>
<defs>
<linearGradient id="paint0_linear_0_1" x1="211.514" y1="81.0078" x2="211.514" y2="311.5" gradientUnits="userSpaceOnUse">
<stop offset="0.288539" stop-color="#211A30"/>
<stop offset="0.76106" stop-color="#33BADD"/>
<stop offset="0.914218" stop-color="#211A30"/>
</linearGradient>
<linearGradient id="paint1_linear_0_1" x1="211.514" y1="81.0078" x2="211.514" y2="311.5" gradientUnits="userSpaceOnUse">
<stop offset="0.288539" stop-color="#211A30"/>
<stop offset="0.76106" stop-color="#33BADD"/>
<stop offset="0.914218" stop-color="#211A30"/>
</linearGradient>
<linearGradient id="paint2_linear_0_1" x1="211.514" y1="81.0078" x2="211.514" y2="311.5" gradientUnits="userSpaceOnUse">
<stop offset="0.288539" stop-color="#211A30"/>
<stop offset="0.76106" stop-color="#33BADD"/>
<stop offset="0.914218" stop-color="#211A30"/>
</linearGradient>
<linearGradient id="paint3_linear_0_1" x1="211.514" y1="81.0078" x2="211.514" y2="311.5" gradientUnits="userSpaceOnUse">
<stop offset="0.288539" stop-color="#211A30"/>
<stop offset="0.76106" stop-color="#33BADD"/>
<stop offset="0.914218" stop-color="#211A30"/>
</linearGradient>
<linearGradient id="paint4_linear_0_1" x1="211.514" y1="81.0078" x2="211.514" y2="311.5" gradientUnits="userSpaceOnUse">
<stop offset="0.288539" stop-color="#211A30"/>
<stop offset="0.76106" stop-color="#33BADD"/>
<stop offset="0.914218" stop-color="#211A30"/>
</linearGradient>
<linearGradient id="paint5_linear_0_1" x1="211.514" y1="81.0078" x2="211.514" y2="311.5" gradientUnits="userSpaceOnUse">
<stop offset="0.288539" stop-color="#211A30"/>
<stop offset="0.76106" stop-color="#33BADD"/>
<stop offset="0.914218" stop-color="#211A30"/>
</linearGradient>
<linearGradient id="paint6_linear_0_1" x1="211.514" y1="81.0078" x2="211.514" y2="311.5" gradientUnits="userSpaceOnUse">
<stop offset="0.288539" stop-color="#211A30"/>
<stop offset="0.76106" stop-color="#33BADD"/>
<stop offset="0.914218" stop-color="#211A30"/>
</linearGradient>
<linearGradient id="paint7_linear_0_1" x1="211.514" y1="81.0078" x2="211.514" y2="311.5" gradientUnits="userSpaceOnUse">
<stop offset="0.288539" stop-color="#211A30"/>
<stop offset="0.76106" stop-color="#33BADD"/>
<stop offset="0.914218" stop-color="#211A30"/>
</linearGradient>
<linearGradient id="paint8_linear_0_1" x1="211.514" y1="81.0078" x2="211.514" y2="311.5" gradientUnits="userSpaceOnUse">
<stop offset="0.288539" stop-color="#211A30"/>
<stop offset="0.76106" stop-color="#33BADD"/>
<stop offset="0.914218" stop-color="#211A30"/>
</linearGradient>
<linearGradient id="paint9_linear_0_1" x1="211.514" y1="81.0078" x2="211.514" y2="311.5" gradientUnits="userSpaceOnUse">
<stop offset="0.288539" stop-color="#211A30"/>
<stop offset="0.76106" stop-color="#33BADD"/>
<stop offset="0.914218" stop-color="#211A30"/>
</linearGradient>
<linearGradient id="paint10_linear_0_1" x1="188.925" y1="100.505" x2="188.998" y2="352.043" gradientUnits="userSpaceOnUse">
<stop offset="0.0421023" stop-color="#371B19"/>
<stop offset="0.65" stop-color="#F0E2A7"/>
<stop offset="0.987722" stop-color="#371B19"/>
</linearGradient>
<linearGradient id="paint11_linear_0_1" x1="188.925" y1="100.505" x2="188.998" y2="352.043" gradientUnits="userSpaceOnUse">
<stop offset="0.0421023" stop-color="#371B19"/>
<stop offset="0.65" stop-color="#F0E2A7"/>
<stop offset="0.987722" stop-color="#371B19"/>
</linearGradient>
<linearGradient id="paint12_linear_0_1" x1="188.925" y1="100.505" x2="188.998" y2="352.043" gradientUnits="userSpaceOnUse">
<stop offset="0.0421023" stop-color="#371B19"/>
<stop offset="0.65" stop-color="#F0E2A7"/>
<stop offset="0.987722" stop-color="#371B19"/>
</linearGradient>
<linearGradient id="paint13_linear_0_1" x1="188.925" y1="100.505" x2="188.998" y2="352.043" gradientUnits="userSpaceOnUse">
<stop offset="0.0421023" stop-color="#371B19"/>
<stop offset="0.65" stop-color="#F0E2A7"/>
<stop offset="0.987722" stop-color="#371B19"/>
</linearGradient>
<linearGradient id="paint14_linear_0_1" x1="188.925" y1="100.505" x2="188.998" y2="352.043" gradientUnits="userSpaceOnUse">
<stop offset="0.0421023" stop-color="#371B19"/>
<stop offset="0.65" stop-color="#F0E2A7"/>
<stop offset="0.987722" stop-color="#371B19"/>
</linearGradient>
<linearGradient id="paint15_linear_0_1" x1="188.925" y1="100.505" x2="188.998" y2="352.043" gradientUnits="userSpaceOnUse">
<stop offset="0.0421023" stop-color="#371B19"/>
<stop offset="0.65" stop-color="#F0E2A7"/>
<stop offset="0.987722" stop-color="#371B19"/>
</linearGradient>
<linearGradient id="paint16_linear_0_1" x1="188.925" y1="100.505" x2="188.998" y2="352.043" gradientUnits="userSpaceOnUse">
<stop offset="0.0421023" stop-color="#371B19"/>
<stop offset="0.65" stop-color="#F0E2A7"/>
<stop offset="0.987722" stop-color="#371B19"/>
</linearGradient>
<clipPath id="clip0_0_1">
<rect width="277" height="86" fill="white" transform="translate(52)"/>
</clipPath>
</defs>
</svg>
